<svg width="60" height="60" viewBox="0 0 60 60" fill="none" xmlns="http://www.w3.org/2000/svg">
<path d="M60 30C60 46.5685 46.5685 60 30 60C13.4315 60 0 46.5685 0 30C0 13.4315 13.4315 0 30 0C46.5685 0 60 13.4315 60 30ZM2.50418 30C2.50418 45.1855 14.8145 57.4958 30 57.4958C45.1855 57.4958 57.4958 45.1855 57.4958 30C57.4958 14.8145 45.1855 2.50418 30 2.50418C14.8145 2.50418 2.50418 14.8145 2.50418 30Z" fill="#EAEAEC"/>
<path d="M55 30C55 43.8071 43.8071 55 30 55C16.1929 55 5 43.8071 5 30C5 16.1929 16.1929 5 30 5C43.8071 5 55 16.1929 55 30ZM7.51045 30C7.51045 42.4206 17.5794 52.4895 30 52.4895C42.4206 52.4895 52.4895 42.4206 52.4895 30C52.4895 17.5794 42.4206 7.51045 30 7.51045C17.5794 7.51045 7.51045 17.5794 7.51045 30Z" fill="#EAEAEC"/>
<path d="M30 6.25C30 5.55964 30.56 4.99674 31.2495 5.03124C35.1411 5.22596 38.9338 6.32783 42.3239 8.24865C42.9246 8.58897 43.0958 9.36433 42.7259 9.94722C42.356 10.5301 41.5851 10.6994 40.9826 10.3625C37.9956 8.69193 34.6665 7.72472 31.2494 7.53471C30.5601 7.49638 30 6.94036 30 6.25Z" fill="#7E7D88"/>
<path d="M30 1.25209C30 0.56058 30.5609 -0.0027286 31.2518 0.0261127C37.6258 0.292188 43.7615 2.58475 48.7573 6.58709C54.0793 10.8508 57.7899 16.8006 59.2775 23.4557C60.7651 30.1108 59.9409 37.0742 56.9408 43.1982C53.9407 49.3222 48.9437 54.2413 42.7734 57.1448C36.603 60.0484 29.6276 60.763 22.9966 59.1711C16.3657 57.5791 10.475 53.7756 6.29535 48.3872C2.11571 42.9989 -0.103415 36.3473 0.00370115 29.5288C0.104249 23.1283 2.2489 16.9393 6.10682 11.8584C6.525 11.3077 7.31654 11.2346 7.84936 11.6754C8.38218 12.1162 8.45426 12.9038 8.03818 13.4561C4.54199 18.0971 2.59918 23.7369 2.50757 29.5681C2.4094 35.8175 4.44329 41.9138 8.27404 46.8524C12.1048 51.791 17.5038 55.277 23.5812 56.7361C29.6587 58.1952 36.0519 57.5401 41.7071 54.879C47.3624 52.2178 51.9423 47.7093 54.692 42.0965C57.4417 36.4837 58.1971 30.1016 56.8336 24.002C55.4702 17.9024 52.0694 12.4493 47.1916 8.54143C42.6401 4.89504 37.0562 2.79709 31.2517 2.53267C30.5609 2.50121 30 1.9436 30 1.25209Z" fill="#35C75A"/>
<path d="M50 30C50 41.0457 41.0457 50 30 50C18.9543 50 10 41.0457 10 30C10 18.9543 18.9543 10 30 10C41.0457 10 50 18.9543 50 30ZM12.0084 30C12.0084 39.9365 20.0635 47.9916 30 47.9916C39.9365 47.9916 47.9916 39.9365 47.9916 30C47.9916 20.0635 39.9365 12.0084 30 12.0084C20.0635 12.0084 12.0084 20.0635 12.0084 30Z" fill="#EAEAEC"/>
<path d="M30 11.0042C30 10.4496 30.4499 9.99737 31.0038 10.0252C32.4283 10.0968 33.841 10.3205 35.2179 10.6927C35.7533 10.8374 36.0414 11.4065 35.87 11.9339C35.6987 12.4614 35.1327 12.7471 34.5965 12.6054C33.4212 12.2949 32.2174 12.1042 31.0037 12.0364C30.4499 12.0054 30 11.5588 30 11.0042Z" fill="#F178B6"/>
</svg>
