<svg width="60" height="60" viewBox="0 0 60 60" fill="none" xmlns="http://www.w3.org/2000/svg">
<path d="M60 30C60 46.5685 46.5685 60 30 60C13.4315 60 0 46.5685 0 30C0 13.4315 13.4315 0 30 0C46.5685 0 60 13.4315 60 30ZM2.50418 30C2.50418 45.1855 14.8145 57.4958 30 57.4958C45.1855 57.4958 57.4958 45.1855 57.4958 30C57.4958 14.8145 45.1855 2.50418 30 2.50418C14.8145 2.50418 2.50418 14.8145 2.50418 30Z" fill="#EAEAEC"/>
<path d="M55 30C55 43.8071 43.8071 55 30 55C16.1929 55 5 43.8071 5 30C5 16.1929 16.1929 5 30 5C43.8071 5 55 16.1929 55 30ZM7.51045 30C7.51045 42.4206 17.5794 52.4895 30 52.4895C42.4206 52.4895 52.4895 42.4206 52.4895 30C52.4895 17.5794 42.4206 7.51045 30 7.51045C17.5794 7.51045 7.51045 17.5794 7.51045 30Z" fill="#EAEAEC"/>
<path d="M30 6.25C30 5.55964 30.5601 4.99674 31.2496 5.03124C35.6721 5.25251 39.9574 6.64486 43.6653 9.06537C44.2434 9.44273 44.3657 10.2273 43.9599 10.7859V10.7859C43.5541 11.3444 42.7741 11.465 42.194 11.0908C38.916 8.97686 35.1439 7.75125 31.2494 7.53471C30.5601 7.49638 30 6.94036 30 6.25V6.25Z" fill="#7E7D88"/>
<path d="M30 1.25209C30 0.56058 30.5609 -0.00272785 31.2518 0.0261116C37.9469 0.305574 44.3698 2.82033 49.4834 7.18782C54.9151 11.8269 58.5132 18.2518 59.6307 25.307C60.7481 32.3621 59.3115 39.5845 55.5792 45.675C51.8469 51.7654 46.064 56.3244 39.2705 58.5317C32.477 60.739 25.1188 60.4499 18.5195 57.7164C11.9201 54.9828 6.5127 49.9843 3.2698 43.6197C0.0269051 37.2552 -0.83862 29.9424 0.828905 22.9966C2.39881 16.4575 6.11688 10.6478 11.3691 6.48641C11.9111 6.05697 12.696 6.183 13.1024 6.74245V6.74245C13.5089 7.30189 13.3828 8.0827 12.8425 8.51419C8.07188 12.3236 4.6946 17.6219 3.26389 23.5812C1.73556 29.9472 2.52884 36.6496 5.50104 42.4828C8.47324 48.3161 13.4293 52.8975 19.4778 55.4028C25.5263 57.9082 32.2703 58.1732 38.4967 56.1501C44.7231 54.127 50.0233 49.9486 53.444 44.3665C56.8648 38.7844 58.1815 32.1649 57.1573 25.6987C56.1331 19.2325 52.8354 13.3438 47.8571 9.09202C43.1969 5.11179 37.3503 2.81045 31.2517 2.53267C30.5609 2.5012 30 1.9436 30 1.25209V1.25209Z" fill="#FF7506"/>
</svg>
