<svg width="60" height="60" viewBox="0 0 60 60" fill="none" xmlns="http://www.w3.org/2000/svg">
<path d="M60 30C60 46.5685 46.5685 60 30 60C13.4315 60 0 46.5685 0 30C0 13.4315 13.4315 0 30 0C46.5685 0 60 13.4315 60 30ZM2.50418 30C2.50418 45.1855 14.8145 57.4958 30 57.4958C45.1855 57.4958 57.4958 45.1855 57.4958 30C57.4958 14.8145 45.1855 2.50418 30 2.50418C14.8145 2.50418 2.50418 14.8145 2.50418 30Z" fill="#EAEAEC"/>
<path d="M55 30C55 43.8071 43.8071 55 30 55C16.1929 55 5 43.8071 5 30C5 16.1929 16.1929 5 30 5C43.8071 5 55 16.1929 55 30ZM7.51045 30C7.51045 42.4206 17.5794 52.4895 30 52.4895C42.4206 52.4895 52.4895 42.4206 52.4895 30C52.4895 17.5794 42.4206 7.51045 30 7.51045C17.5794 7.51045 7.51045 17.5794 7.51045 30Z" fill="#EAEAEC"/>
<path d="M30 6.25C30 5.55964 30.5601 4.99674 31.2496 5.03122C37.1562 5.32663 42.7829 7.70889 47.1137 11.7758C51.4445 15.8427 54.1753 21.3087 54.841 27.1851C54.9188 27.8711 54.3921 28.4654 53.7031 28.5087C53.0141 28.5521 52.424 28.0279 52.3425 27.3424C51.7192 22.1008 49.2695 17.2297 45.4023 13.5982C41.5351 9.96667 36.5199 7.82766 31.2495 7.53469C30.5602 7.49638 30 6.94036 30 6.25Z" fill="#7E7D88"/>
<path d="M30 1.25209C30 0.56058 30.5609 -0.00272752 31.2518 0.0261201C36.8261 0.258866 42.2344 2.04233 46.8625 5.18758C51.8363 8.5678 55.6795 13.3648 57.8933 18.9563C60.1071 24.5477 60.5894 30.6754 59.2775 36.5443C57.9656 42.4132 54.9202 47.7524 50.5364 51.8691C46.1526 55.9857 40.6327 58.6899 34.693 59.6306C28.7533 60.5714 22.668 59.7053 17.2266 57.1448C11.7852 54.5843 7.23898 50.4475 4.17774 45.2712C1.32929 40.4548 -0.111064 34.9452 0.00666527 29.3673C0.0212572 28.6759 0.618672 28.1515 1.30882 28.1949C1.99896 28.2383 2.52025 28.8332 2.50828 29.5246C2.42044 34.6012 3.74031 39.6122 6.33319 43.9965C9.1389 48.7407 13.3057 52.5322 18.2928 54.879C23.28 57.2257 28.8574 58.0195 34.3013 57.1573C39.7452 56.2951 44.8043 53.8166 48.8222 50.0436C52.8401 46.2705 55.6313 41.377 56.8336 35.998C58.036 30.619 57.594 25.0028 55.565 19.8781C53.536 14.7534 50.0136 10.3568 45.4549 7.25874C41.2421 4.39568 36.3239 2.76378 31.2518 2.53268C30.561 2.50121 30 1.9436 30 1.25209Z" fill="#4277FF"/>
</svg>
