<svg width="60" height="60" viewBox="0 0 60 60" fill="none" xmlns="http://www.w3.org/2000/svg">
<path d="M30 1.25209C30 0.56058 30.5609 -0.00272785 31.2518 0.0261116C37.9469 0.305574 44.3698 2.82033 49.4834 7.18782C54.9151 11.8269 58.5132 18.2518 59.6306 25.307C60.7481 32.3621 59.3115 39.5845 55.5792 45.675C51.8469 51.7654 46.064 56.3244 39.2705 58.5317C32.477 60.739 25.1188 60.4499 18.5195 57.7164C11.9201 54.9828 6.51269 49.9843 3.2698 43.6197C0.0269051 37.2552 -0.83862 29.9424 0.828905 22.9966C2.39881 16.4575 6.11688 10.6478 11.3691 6.48641C11.9111 6.05697 12.696 6.183 13.1024 6.74245C13.5089 7.30189 13.3828 8.0827 12.8425 8.51419C8.07188 12.3236 4.6946 17.6219 3.26389 23.5812C1.73556 29.9472 2.52884 36.6496 5.50104 42.4828C8.47324 48.3161 13.4293 52.8975 19.4778 55.4028C25.5263 57.9082 32.2703 58.1732 38.4967 56.1501C44.7231 54.127 50.0233 49.9486 53.444 44.3665C56.8648 38.7844 58.1814 32.1649 57.1573 25.6987C56.1331 19.2325 52.8354 13.3438 47.8571 9.09202C43.1969 5.11179 37.3503 2.81045 31.2517 2.53267C30.5609 2.5012 30 1.9436 30 1.25209Z" fill="#FF7506"/>
</svg>
